<svg id="Ebene_1" data-name="Ebene 1" xmlns="http://www.w3.org/2000/svg" viewBox="0 0 828.58 229.9"><defs><style>.cls-1{fill:#cd211f;}.cls-2{fill:#fff;}.cls-3{font-size:200px;fill:#cd1f1f;font-family:ArialRoundedMTBold, Arial Rounded MT Bold;}.cls-4{font-size:177.56px;fill:#232323;font-family:Rockwell-Regular, Rockwell;}</style></defs><title>tabler</title><path class="cls-1" d="M106.78,183.82,156,187.27c24.75,1.73,37.32,2.61,50.38,7.77a52.75,52.75,0,0,1,29.24,33.64c3.3,13.65,2.42,26.22.66,51.36l-3.42,48.83c-1.73,24.75-2.61,37.32-7.77,50.38a52.75,52.75,0,0,1-33.64,29.24c-13.65,3.3-26.22,2.42-51.36.66l-48.82-3.42C66.51,404,53.94,403.12,40.88,398a52.75,52.75,0,0,1-29.24-33.64C8.34,350.67,9.22,338.1,11,313l3.42-48.83c1.73-24.75,2.61-37.32,7.77-50.38a52.75,52.75,0,0,1,33.64-29.24c13.65-3.3,26.22-2.42,51.36-.66Z" transform="translate(-9.42 -182.28)"/><path class="cls-2" d="M88.82,209.07l57.11-4c17.2-1.2,25.94-1.81,35.43.48a36.65,36.65,0,0,1,23.37,20.32c3.59,9.08,4.2,17.81,5.43,35.28l4.09,58.58c1.2,17.2,1.82,25.94-.48,35.42a36.61,36.61,0,0,1-20.32,23.38c-9.07,3.59-17.81,4.2-35.28,5.42l-56.84,4c-17.2,1.2-25.94,1.81-35.42-.48a36.65,36.65,0,0,1-23.38-20.32c-3.59-9.08-4.2-17.81-5.42-35.28L33,273.27c-1.2-17.2-1.81-25.94.48-35.42a36.61,36.61,0,0,1,20.32-23.38c9.07-3.59,17.81-4.2,35.28-5.42Z" transform="translate(-9.42 -182.28)"/><text class="cls-3" transform="translate(58.58 187.72)">#</text><text class="cls-4" transform="translate(246.41 161.64)">planer</text></svg>