<svg id="Ebene_1" data-name="Ebene 1" xmlns="http://www.w3.org/2000/svg" viewBox="0 0 788.79 263.03"><defs><style>.cls-1{fill:#cd211f;}.cls-2{fill:#701413;}.cls-3,.cls-5{fill:#fff;}.cls-4{font-size:200px;fill:#cd1f1f;font-family:ArialRoundedMTBold, Arial Rounded MT Bold;}.cls-5{font-size:150px;font-family:Rockwell-Regular, Rockwell;}</style></defs><title>logo</title><path class="cls-1" d="M98.16,166H743.84c20.51,0,30.93,0,42,3.5a43.62,43.62,0,0,1,26.06,26.06c3.5,11.06,3.5,21.48,3.5,42.31v119.6c0,20.51,0,30.93-3.5,42a43.62,43.62,0,0,1-26.06,26.06c-11.06,3.5-21.48,3.5-42.31,3.5H98.16c-20.51,0-30.93,0-42-3.5a43.62,43.62,0,0,1-26.06-26.06c-3.5-11.06-3.5-21.48-3.5-42.31V237.54c0-20.51,0-30.93,3.5-42a43.62,43.62,0,0,1,26.06-26.06C67.23,166,77.65,166,98.48,166Z" transform="translate(-26.61 -165.99)"/><path class="cls-2" d="M140.78,184.82,190,188.27c24.75,1.73,37.32,2.61,50.38,7.77a52.75,52.75,0,0,1,29.24,33.64c3.3,13.65,2.42,26.22.66,51.36l-3.42,48.83c-1.73,24.75-2.61,37.32-7.77,50.38a52.75,52.75,0,0,1-33.64,29.24c-13.65,3.3-26.22,2.42-51.36.66l-48.82-3.42C100.51,405,87.94,404.12,74.88,399a52.75,52.75,0,0,1-29.24-33.64C42.34,351.67,43.22,339.1,45,314l3.42-48.83c1.73-24.75,2.61-37.32,7.77-50.38a52.75,52.75,0,0,1,33.64-29.24c13.65-3.3,26.22-2.42,51.36-.66Z" transform="translate(-26.61 -165.99)"/><path class="cls-3" d="M119.63,202,182,197.68c18.78-1.32,28.32-2,38.68.52a40,40,0,0,1,25.52,22.19c3.92,9.9,4.59,19.44,5.92,38.52l4.47,63.95c1.32,18.79,2,28.32-.52,38.68a40,40,0,0,1-22.19,25.52c-9.9,3.92-19.44,4.59-38.52,5.92l-62.06,4.34c-18.78,1.32-28.32,2-38.68-.52a40,40,0,0,1-25.52-22.19c-3.92-9.9-4.59-19.44-5.92-38.52l-4.47-63.95c-1.31-18.78-2-28.32.52-38.68A40,40,0,0,1,81.4,207.94c9.91-3.92,19.44-4.59,38.52-5.92Z" transform="translate(-26.61 -165.99)"/><text class="cls-4" transform="translate(75.39 205.01)">#</text><text class="cls-5" transform="translate(262.39 171.01)">planer</text></svg>